# xmcd
#
# Track frame offsets:
#       150
#       17940
#       26934
#       39500
#       59945
#       74985
#       88885
#       101885
#       114575
#       151595
#       179530
#       186675
#       205210
#       221985
#       236710
#       257140
#       271637
#
# Disc length: 3977 seconds
#
# Revision: 2
# Processed by: cddbd v1.4PL0 Copyright (c) Steve Scherf et al.
# Submitted via: CD-DA_X-Tractor v0.23
#
DISCID=160f8711
DTITLE=Tabernáculo de Davi - Regozijai-vos
DYEAR=33
DGENRE=Gospel
TTITLE0=Salmo 23
TTITLE1=Regozijai-vos
TTITLE2=Só em Jesus
TTITLE3=Entra na Presença (A)
TTITLE4=Cordeiro de Deus
TTITLE5=Aleluia Rendei Graças
TTITLE6=Magnificar
TTITLE7=Glorificai, Engrandecei
TTITLE8=Ser Semelhante
TTITLE9=Pão da Vida
TTITLE10=Entra na Presença (B)
TTITLE11=Rei do Universo
TTITLE12=Ao Deus Triuno
TTITLE13=Terra e Céu
TTITLE14=Profetiza
TTITLE15=Santo e Justo
TTITLE16=Aleluia de Claudio Claro
EXTD=
EXTT0=
EXTT1=
EXTT2=
EXTT3=
EXTT4=
EXTT5=
EXTT6=
EXTT7=
EXTT8=
EXTT9=
EXTT10=
EXTT11=
EXTT12=
EXTT13=
EXTT14=
EXTT15=
EXTT16=
PLAYORDER=
